# xmcd
#
# Track frame offsets:
#	150
#	19437
#	37220
#	55815
#
# Disc length: 973 seconds
#
# Revision: 1
# Processed by: cddbd v1.5.1PL0 Copyright (c) Steve Scherf et al.
# Submitted via: EasyCDDAExtractor 7.0.6.1
#
DISCID=3403cb04
DTITLE=Tracie Spencer - It's All About You (Not About Me)
DYEAR=1993
DGENRE=R&B
TTITLE0=It's All About You (Not About Me) (Original Mix)
TTITLE1=It's All About You (Not About Me) (Roots Remix)
TTITLE2=It's All About You (Not About Me) (Radio Mix)
TTITLE3=It's All About You (Not About Me) (Radio Edit)
EXTD=
EXTT0=
EXTT1=
EXTT2=
EXTT3=
PLAYORDER=
